# xmcd CD database file
#
# Track frame offsets:
#	182
#	16147
#	29247
#	43420
#	57137
#	76685
#	89705
#	101915
#	113030
#	124835
#	135050
#	148427
#	159577
#	170255
#
# Disc length: 2465 seconds
#
# Revision: 5
# Processed by: cddbd v1.5.2PL0 Copyright (c) Steve Scherf et al.
# Submitted via: CDex 1.51
#
DISCID=bf099f0e
DTITLE=Various Artist - Noël - Vol.4 - Les plus belles mélodies de Noël au piano
DYEAR=2000
DGENRE=Chants de Noël
TTITLE0=White Christmas      { Henri Pélissier - 1992 }
TTITLE1=Jingle bells
TTITLE2=Mon beau sapin
TTITLE3=L'enfant au tambour
TTITLE4=Petit papa Noël
TTITLE5=Douce nuit
TTITLE6=Cloches de Noël
TTITLE7=Il est né le divin enfant
TTITLE8=Glory allelujah
TTITLE9=Je suis chrétien
TTITLE10=Minuit chrétien
TTITLE11=Les anges dans nos campagnes
TTITLE12=Le voici, l'agneau si doux
TTITLE13=Concerto de Noël
EXTD=YEAR: 2000
EXTT0=
EXTT1=
EXTT2=
EXTT3=
EXTT4=
EXTT5=
EXTT6=
EXTT7=
EXTT8=
EXTT9=
EXTT10=
EXTT11=
EXTT12=
EXTT13=
PLAYORDER=
